<svg width="50" height="50" viewBox="0 0 50 50" fill="none" xmlns="http://www.w3.org/2000/svg">
<path d="M43.7297 49.9967H6.25245C5.42539 50.0241 4.60165 49.8795 3.83332 49.5722C3.06499 49.2649 2.36879 48.8014 1.78875 48.2113C1.20304 47.6353 0.742232 46.9449 0.435045 46.1831C0.127859 45.4213 -0.0191202 44.6044 0.00326871 43.7833V6.25245C-0.0240843 5.42539 0.120476 4.60165 0.427807 3.83332C0.735138 3.06499 1.19855 2.36879 1.78875 1.78875C2.36879 1.19855 3.06499 0.735138 3.83332 0.427807C4.60165 0.120476 5.42539 -0.0240843 6.25245 0.00326871H43.7475C44.5746 -0.0240843 45.3983 0.120476 46.1667 0.427807C46.935 0.735138 47.6312 1.19855 48.2113 1.78875C48.8014 2.36879 49.2649 3.06499 49.5722 3.83332C49.8795 4.60165 50.0241 5.42539 49.9967 6.25245V43.7475C49.9873 45.4051 49.3235 46.9919 48.1497 48.1623C46.9759 49.3327 45.3873 49.992 43.7297 49.9967ZM38.3732 37.1948C39.4345 37.2907 40.4997 37.0602 41.4264 36.5342C41.7382 36.2695 41.9808 35.9328 42.1333 35.5533C42.2857 35.1737 42.3434 34.7628 42.3013 34.3559V14.9299C42.3057 14.5542 42.2336 14.1816 42.0893 13.8348C41.945 13.4879 41.7316 13.174 41.4621 12.9123C41.203 12.6393 40.8896 12.4237 40.5422 12.2791C40.1947 12.1346 39.8208 12.0644 39.4445 12.0731H10.4126C10.037 12.0687 9.66436 12.1409 9.31749 12.2851C8.97063 12.4294 8.65676 12.6428 8.39503 12.9123C8.12605 13.1707 7.91282 13.4814 7.7685 13.8253C7.62417 14.1692 7.55181 14.5391 7.55585 14.912V34.3559C7.55181 34.7289 7.62417 35.0987 7.7685 35.4426C7.91282 35.7866 8.12605 36.0973 8.39503 36.3557C8.65676 36.6252 8.97063 36.8385 9.31749 36.9828C9.66436 37.1271 10.037 37.1992 10.4126 37.1948H38.3732ZM12.1267 35.8379V19.8935L23.6609 27.8389L12.1267 35.8379ZM37.3734 36.4985H12.5016L24.3394 28.2317C24.5059 28.3895 24.7187 28.4896 24.9464 28.5174C25.1588 28.4593 25.3585 28.3625 25.5356 28.2317L37.3734 36.4985ZM24.875 21.9468L12.5016 12.7873H37.3198L24.875 21.9468ZM37.6233 35.8379L26.0891 27.8389L37.6233 19.8935V35.8379Z" fill="white"/>
</svg>
